HIERARCHY
ROOT Hips
{
	OFFSET 0.000000 97.167313 0.000000
	CHANNELS 6 Xposition Yposition Zposition Xrotation Yrotation Zrotation
	JOINT Spine
	{
		OFFSET 0.000000 13.784798 0.064400
		CHANNELS 3 Xrotation Yrotation Zrotation
		JOINT Spine1
		{
			OFFSET 0.000000 12.037903 0.404700
			CHANNELS 3 Xrotation Yrotation Zrotation
			JOINT Spine2
			{
				OFFSET 0.000000 17.795601 0.420200
				CHANNELS 3 Xrotation Yrotation Zrotation
				JOINT Neck
				{
					OFFSET 0.000000 39.131302 11.954600
					CHANNELS 3 Xrotation Yrotation Zrotation
					JOINT Head
					{
						OFFSET 0.000000 14.456192 15.627699
						CHANNELS 3 Xrotation Yrotation Zrotation
						JOINT HeadTop_End
						{
							OFFSET 0.000000 15.703506 7.603401
							CHANNELS 3 Xrotation Yrotation Zrotation
							End Site
							{
								OFFSET 0.000000 17.447403 0.000000
							}
						}
					}
				}
				JOINT LeftShoulder
				{
					OFFSET 17.399500 24.608795 1.168800
					CHANNELS 3 Xrotation Yrotation Zrotation
					JOINT LeftArm
					{
						OFFSET 18.980635 5.765305 1.818600
						CHANNELS 3 Xrotation Yrotation Zrotation
						JOINT LeftForeArm
						{
							OFFSET 49.290169 0.000000 0.000000
							CHANNELS 3 Xrotation Yrotation Zrotation
							JOINT LeftHand
							{
								OFFSET 31.562012 0.000000 0.000000
								CHANNELS 3 Xrotation Yrotation Zrotation
								JOINT LeftHandThumb1
								{
									OFFSET 6.133995 -4.388519 7.076070
									CHANNELS 3 Xrotation Yrotation Zrotation
									JOINT LeftHandThumb2
									{
										OFFSET 6.037666 -3.485840 3.485847
										CHANNELS 3 Xrotation Yrotation Zrotation
										JOINT LeftHandThumb3
										{
											OFFSET 6.496506 -3.750763 3.750761
											CHANNELS 3 Xrotation Yrotation Zrotation
											JOINT LeftHandThumb4
											{
												OFFSET 5.616882 -3.242905 3.242910
												CHANNELS 3 Xrotation Yrotation Zrotation
												End Site
												{
													OFFSET -1.254608 7.132141 0.375429
												}
											}
										}
									}
								}
								JOINT LeftHandPinky1
								{
									OFFSET 18.920792 -0.453171 -11.426712
									CHANNELS 3 Xrotation Yrotation Zrotation
									JOINT LeftHandPinky2
									{
										OFFSET 4.919586 0.000000 0.000000
										CHANNELS 3 Xrotation Yrotation Zrotation
										JOINT LeftHandPinky3
										{
											OFFSET 5.233047 0.000000 0.000000
											CHANNELS 3 Xrotation Yrotation Zrotation
											JOINT LeftHandPinky4
											{
												OFFSET 5.571716 0.000000 0.000000
												CHANNELS 3 Xrotation Yrotation Zrotation
												End Site
												{
													OFFSET -3.459808 4.342407 -0.466164
												}
											}
										}
									}
								}
								JOINT LeftHandRing1
								{
									OFFSET 22.726120 -0.094986 -6.500475
									CHANNELS 3 Xrotation Yrotation Zrotation
									JOINT LeftHandRing2
									{
										OFFSET 6.408615 0.000000 0.000000
										CHANNELS 3 Xrotation Yrotation Zrotation
										JOINT LeftHandRing3
										{
											OFFSET 6.150223 0.000000 0.000000
											CHANNELS 3 Xrotation Yrotation Zrotation
											JOINT LeftHandRing4
											{
												OFFSET 6.145386 0.000000 0.000000
												CHANNELS 3 Xrotation Yrotation Zrotation
												End Site
												{
													OFFSET -3.671402 4.923981 -0.202372
												}
											}
										}
									}
								}
								JOINT LeftHandMiddle1
								{
									OFFSET 23.373947 0.000000 0.000001
									CHANNELS 3 Xrotation Yrotation Zrotation
									JOINT LeftHandMiddle2
									{
										OFFSET 6.996567 0.000000 0.000000
										CHANNELS 3 Xrotation Yrotation Zrotation
										JOINT LeftHandMiddle3
										{
											OFFSET 7.015945 0.000000 0.000000
											CHANNELS 3 Xrotation Yrotation Zrotation
											JOINT LeftHandMiddle4
											{
												OFFSET 7.721573 0.000000 0.000000
												CHANNELS 3 Xrotation Yrotation Zrotation
												End Site
												{
													OFFSET -4.651108 6.158463 0.251582
												}
											}
										}
									}
								}
								JOINT LeftHandIndex1
								{
									OFFSET 21.310577 -0.490082 6.209344
									CHANNELS 3 Xrotation Yrotation Zrotation
									JOINT LeftHandIndex2
									{
										OFFSET 7.536453 0.000000 0.000000
										CHANNELS 3 Xrotation Yrotation Zrotation
										JOINT LeftHandIndex3
										{
											OFFSET 7.512344 0.000000 0.000000
											CHANNELS 3 Xrotation Yrotation Zrotation
											JOINT LeftHandIndex4
											{
												OFFSET 10.212402 0.000000 0.000001
												CHANNELS 3 Xrotation Yrotation Zrotation
												End Site
												{
													OFFSET -5.180801 8.690506 1.388433
												}
											}
										}
									}
								}
							}
						}
					}
				}
				JOINT RightShoulder
				{
					OFFSET -17.399500 24.608795 1.168800
					CHANNELS 3 Xrotation Yrotation Zrotation
					JOINT RightArm
					{
						OFFSET -18.980635 5.765305 1.818600
						CHANNELS 3 Xrotation Yrotation Zrotation
						JOINT RightForeArm
						{
							OFFSET -49.290169 0.000000 0.000000
							CHANNELS 3 Xrotation Yrotation Zrotation
							JOINT RightHand
							{
								OFFSET -31.562012 0.000000 0.000000
								CHANNELS 3 Xrotation Yrotation Zrotation
								JOINT RightHandThumb1
								{
									OFFSET -6.133995 -4.388519 7.076070
									CHANNELS 3 Xrotation Yrotation Zrotation
									JOINT RightHandThumb2
									{
										OFFSET -6.037666 -3.485840 3.485847
										CHANNELS 3 Xrotation Yrotation Zrotation
										JOINT RightHandThumb3
										{
											OFFSET -6.496506 -3.750763 3.750761
											CHANNELS 3 Xrotation Yrotation Zrotation
											JOINT RightHandThumb4
											{
												OFFSET -5.616882 -3.242905 3.242910
												CHANNELS 3 Xrotation Yrotation Zrotation
												End Site
												{
													OFFSET 1.254608 7.132141 0.375429
												}
											}
										}
									}
								}
								JOINT RightHandIndex1
								{
									OFFSET -21.310577 -0.490082 6.209344
									CHANNELS 3 Xrotation Yrotation Zrotation
									JOINT RightHandIndex2
									{
										OFFSET -7.536453 0.000000 0.000000
										CHANNELS 3 Xrotation Yrotation Zrotation
										JOINT RightHandIndex3
										{
											OFFSET -7.512344 0.000000 0.000000
											CHANNELS 3 Xrotation Yrotation Zrotation
											JOINT RightHandIndex4
											{
												OFFSET -10.212402 0.000000 0.000001
												CHANNELS 3 Xrotation Yrotation Zrotation
												End Site
												{
													OFFSET 5.180801 8.690506 1.388433
												}
											}
										}
									}
								}
								JOINT RightHandMiddle1
								{
									OFFSET -23.373947 0.000000 0.000001
									CHANNELS 3 Xrotation Yrotation Zrotation
									JOINT RightHandMiddle2
									{
										OFFSET -6.996567 0.000000 0.000000
										CHANNELS 3 Xrotation Yrotation Zrotation
										JOINT RightHandMiddle3
										{
											OFFSET -7.015945 0.000000 0.000000
											CHANNELS 3 Xrotation Yrotation Zrotation
											JOINT RightHandMiddle4
											{
												OFFSET -7.721573 0.000000 0.000000
												CHANNELS 3 Xrotation Yrotation Zrotation
												End Site
												{
													OFFSET 4.651108 6.158463 0.251582
												}
											}
										}
									}
								}
								JOINT RightHandRing1
								{
									OFFSET -22.726120 -0.094986 -6.500475
									CHANNELS 3 Xrotation Yrotation Zrotation
									JOINT RightHandRing2
									{
										OFFSET -6.408615 0.000000 0.000000
										CHANNELS 3 Xrotation Yrotation Zrotation
										JOINT RightHandRing3
										{
											OFFSET -6.150223 0.000000 0.000000
											CHANNELS 3 Xrotation Yrotation Zrotation
											JOINT RightHandRing4
											{
												OFFSET -6.145386 0.000000 0.000000
												CHANNELS 3 Xrotation Yrotation Zrotation
												End Site
												{
													OFFSET 3.671402 4.923981 -0.202372
												}
											}
										}
									}
								}
								JOINT RightHandPinky1
								{
									OFFSET -18.920792 -0.453171 -11.426712
									CHANNELS 3 Xrotation Yrotation Zrotation
									JOINT RightHandPinky2
									{
										OFFSET -4.919586 0.000000 0.000000
										CHANNELS 3 Xrotation Yrotation Zrotation
										JOINT RightHandPinky3
										{
											OFFSET -5.233047 0.000000 0.000000
											CHANNELS 3 Xrotation Yrotation Zrotation
											JOINT RightHandPinky4
											{
												OFFSET -5.571716 0.000000 0.000000
												CHANNELS 3 Xrotation Yrotation Zrotation
												End Site
												{
													OFFSET 3.459808 4.342407 -0.466164
												}
											}
										}
									}
								}
							}
						}
					}
				}
			}
		}
	}
	JOINT LeftUpLeg
	{
		OFFSET 19.899099 -7.885101 -3.429500
		CHANNELS 3 Xrotation Yrotation Zrotation
		JOINT LeftLeg
		{
			OFFSET 1.745560 -36.997807 10.304700
			CHANNELS 3 Xrotation Yrotation Zrotation
			JOINT LeftFoot
			{
				OFFSET -1.745558 -29.803308 -13.615400
				CHANNELS 3 Xrotation Yrotation Zrotation
				JOINT LeftToeBase
				{
					OFFSET 1.181900 -18.539904 15.226099
					CHANNELS 3 Xrotation Yrotation Zrotation
					JOINT LeftToe_End
					{
						OFFSET -0.863701 1.402801 16.534700
						CHANNELS 3 Xrotation Yrotation Zrotation
						End Site
						{
							OFFSET 0.000000 16.616566 0.000000
						}
					}
				}
			}
		}
	}
	JOINT RightUpLeg
	{
		OFFSET -19.899099 -7.885101 -3.429500
		CHANNELS 3 Xrotation Yrotation Zrotation
		JOINT RightLeg
		{
			OFFSET -1.745560 -36.997807 10.304700
			CHANNELS 3 Xrotation Yrotation Zrotation
			JOINT RightFoot
			{
				OFFSET 1.745558 -29.803308 -13.615400
				CHANNELS 3 Xrotation Yrotation Zrotation
				JOINT RightToeBase
				{
					OFFSET -1.181900 -18.539904 15.226099
					CHANNELS 3 Xrotation Yrotation Zrotation
					JOINT RightToe_End
					{
						OFFSET 0.863701 1.402801 16.534700
						CHANNELS 3 Xrotation Yrotation Zrotation
						End Site
						{
							OFFSET 0.000000 16.616566 0.000000
						}
					}
				}
			}
		}
	}
}
MOTION
Frames: 4
Frame Time: 0.033333
-5.641306 78.409569 1.674945 -73.107025 -98.371403 -75.112615 5.080775 -3.021473 -1.254698 4.847009 -2.724705 -1.011895 4.872823 -2.670295 -1.025819 -6.470354 11.543124 1.332226 1.868950 69.226460 6.189703 0.000000 0.000003 -0.000002 2.334445 -16.473644 5.405042 -58.657589 -59.148332 -60.618974 -0.000280 -91.815795 -0.000223 -1.362837 2.416353 38.308397 2.333958 -4.852072 -3.963499 13.533809 36.265893 -6.789669 18.237324 69.607646 3.188476 0.000001 0.000006 0.000003 2.878030 7.353365 -58.659686 3.100884 5.166432 -61.922235 2.817866 5.005783 -58.730556 -0.000002 -0.000001 -0.000002 3.051705 7.454244 -60.629725 5.249933 5.820195 -84.092811 2.817859 5.005791 -58.730570 -0.000001 0.000002 0.000007 2.878030 7.353388 -58.659673 6.420568 5.823390 -95.595239 1.278825 3.654809 -38.558764 -0.000001 -0.000001 0.000009 2.878033 7.353366 -58.659679 6.385712 5.826669 -95.251837 2.817830 5.005779 -58.730550 0.000001 0.000001 -0.000001 2.128879 10.933927 -13.435717 -35.469203 -9.785011 14.948757 65.603503 147.292223 -40.615085 -3.487227 38.281564 -6.676088 2.454510 6.926598 5.617172 7.810744 -26.809469 -3.040594 18.936141 -62.858723 1.747718 -0.000003 0.000000 0.000001 2.770858 -6.512075 65.405386 4.589368 -4.656687 89.164705 1.495819 -3.421524 47.217531 -0.000000 -0.000002 0.000003 2.634503 -6.539965 74.809259 5.688690 -4.541751 102.810261 1.460395 -3.388467 46.621113 -0.000002 0.000002 -0.000001 3.122541 -6.655072 70.080910 5.298718 -4.612848 97.926328 2.043378 -3.855842 55.828972 -0.000001 0.000001 0.000000 4.911943 -9.704393 53.806212 4.184457 -4.633171 84.168005 1.827814 -3.700699 52.558534 -0.000003 -0.000002 0.000002 -40.195076 5.631969 32.957425 42.179174 -12.188274 -0.322007 -9.641310 3.974369 -18.766894 -0.167822 0.001246 -0.428319 -0.000000 0.000001 -0.000000 -38.641194 -1.812100 -18.456542 49.092306 -1.226325 2.487877 -14.462763 -4.737377 14.656302 0.000004 -0.000019 0.000002 0.000000 -0.000002 0.000000 
-5.496789 78.246902 0.005823 -76.092317 -98.321140 -77.982954 5.263405 -2.907963 -1.210975 4.912199 -2.649994 -1.047601 4.938404 -2.587166 -1.063215 -5.451208 11.503760 0.930974 1.668596 68.282453 5.509465 0.000000 0.000000 0.000001 2.236309 -16.993471 3.977290 -56.372915 -59.721699 -59.849362 22.256499 -91.185013 22.901991 -1.407876 1.990762 38.683015 2.333993 -4.852032 -3.963504 13.533787 36.265890 -6.789658 18.237372 69.607639 3.188460 0.000000 0.000001 -0.000001 2.878035 7.353381 -58.659679 3.100885 5.166414 -61.922249 2.817840 5.005792 -58.730550 0.000002 -0.000004 -0.000001 3.051699 7.454266 -60.629718 5.249919 5.820205 -84.092818 2.817850 5.005791 -58.730556 0.000001 -0.000000 0.000007 2.878030 7.353400 -58.659666 6.420540 5.823371 -95.595246 1.278805 3.654836 -38.558761 -0.000001 0.000000 0.000004 2.878031 7.353383 -58.659659 6.385713 5.826666 -95.251865 2.817841 5.005803 -58.730556 0.000001 0.000003 0.000001 2.126863 10.870970 -13.616004 -33.419545 -8.239905 14.612438 66.311383 147.358230 -42.339380 -3.739514 37.998689 -5.791813 2.454505 6.926611 5.617169 7.810749 -26.809483 -3.040591 18.936175 -62.858730 1.747726 0.000001 -0.000002 0.000001 2.770833 -6.512064 65.405386 4.589370 -4.656672 89.164705 1.495818 -3.421535 47.217518 -0.000000 -0.000001 -0.000001 2.634476 -6.539951 74.809231 5.688700 -4.541742 102.810289 1.460400 -3.388465 46.621119 -0.000001 0.000002 0.000001 3.122527 -6.655060 70.080924 5.298717 -4.612866 97.926273 2.043384 -3.855853 55.828979 0.000002 -0.000000 -0.000003 4.911933 -9.704393 53.806212 4.184459 -4.633156 84.167998 1.827816 -3.700676 52.558524 0.000001 0.000001 0.000006 -40.108240 5.064379 33.679171 40.630391 -12.168160 0.102484 -8.237707 3.717577 -20.298940 -0.138645 0.000920 -0.374934 -0.000000 -0.000000 -0.000000 -38.612357 -2.037578 -17.527621 50.112893 -1.679383 2.833230 -15.881605 -4.941749 14.329221 -0.000003 0.000019 0.000002 -0.000000 -0.000001 0.000000 
-5.378355 78.417168 -1.941303 -78.738708 -98.384920 -80.552321 5.422157 -2.820073 -1.120256 4.946861 -2.592452 -1.056088 4.973877 -2.522497 -1.073032 -4.420819 11.491122 0.497092 1.495877 67.352475 4.871111 -0.000001 0.000002 -0.000001 2.119340 -17.562242 2.473087 -53.777016 -60.447256 -58.974107 72.275621 -90.603395 73.472352 -1.426847 1.505957 38.859607 2.334007 -4.852042 -3.963495 13.533769 36.265876 -6.789647 18.237385 69.607639 3.188452 -0.000000 -0.000002 -0.000002 2.878043 7.353378 -58.659666 3.100863 5.166410 -61.922249 2.817845 5.005803 -58.730550 0.000001 -0.000003 0.000001 3.051704 7.454245 -60.629711 5.249926 5.820197 -84.092831 2.817861 5.005787 -58.730556 -0.000002 0.000001 0.000005 2.878042 7.353399 -58.659666 6.420562 5.823363 -95.595239 1.278801 3.654826 -38.558774 0.000002 -0.000000 0.000004 2.878042 7.353365 -58.659686 6.385711 5.826666 -95.251844 2.817848 5.005793 -58.730563 0.000000 0.000001 -0.000008 2.089975 10.694368 -13.611334 -30.364398 -6.786736 14.464411 66.418938 147.115991 -43.836369 -3.866064 38.622859 -5.208411 2.454493 6.926617 5.617168 7.810750 -26.809479 -3.040590 18.936143 -62.858730 1.747712 0.000003 -0.000001 0.000002 2.770848 -6.512069 65.405379 4.589339 -4.656684 89.164705 1.495839 -3.421555 47.217521 0.000000 -0.000000 -0.000004 2.634481 -6.539957 74.809225 5.688686 -4.541757 102.810268 1.460397 -3.388494 46.621119 -0.000003 0.000002 -0.000003 3.122533 -6.655073 70.080910 5.298709 -4.612852 97.926294 2.043384 -3.855845 55.828976 0.000003 -0.000003 -0.000003 4.911910 -9.704381 53.806219 4.184468 -4.633172 84.168032 1.827822 -3.700692 52.558524 0.000003 0.000001 0.000002 -39.463713 4.172689 33.930501 38.325032 -11.992861 0.931498 -6.174305 3.888336 -21.901352 -0.340331 0.003930 -0.753342 -0.000000 0.000000 -0.000000 -38.348756 -2.268978 -16.143833 50.413469 -2.526312 3.046523 -16.675330 -5.053126 14.107516 0.000001 -0.000013 0.000001 0.000000 -0.000002 -0.000000 
-5.286456 79.004501 -4.137792 -80.260849 -98.563140 -82.034308 5.549343 -2.800838 -0.992671 4.940208 -2.587820 -1.047974 4.969750 -2.508518 -1.066385 -3.398509 11.527616 0.076592 1.539905 66.692720 4.074969 -0.000000 0.000000 0.000001 1.989251 -17.939813 1.053885 -50.955100 -61.294056 -58.188984 158.923872 -91.100107 160.591312 -1.429124 0.905945 39.502788 2.333989 -4.852033 -3.963496 13.533788 36.265890 -6.789659 18.237373 69.607626 3.188465 0.000000 0.000001 -0.000002 2.878036 7.353377 -58.659673 3.100868 5.166425 -61.922235 2.817858 5.005790 -58.730563 -0.000001 0.000001 -0.000004 3.051709 7.454262 -60.629718 5.249909 5.820198 -84.092811 2.817865 5.005790 -58.730563 -0.000001 0.000002 0.000003 2.878040 7.353390 -58.659679 6.420551 5.823379 -95.595232 1.278806 3.654841 -38.558774 -0.000001 0.000002 0.000007 2.878040 7.353365 -58.659673 6.385714 5.826666 -95.251824 2.817841 5.005780 -58.730563 -0.000000 0.000003 0.000002 2.056635 10.641205 -13.231662 -26.884516 -5.143867 14.302852 66.376858 146.499389 -45.562307 -4.267083 39.739174 -3.989123 2.454509 6.926611 5.617160 7.810739 -26.809481 -3.040592 18.936163 -62.858736 1.747724 0.000001 -0.000001 0.000001 2.770838 -6.512082 65.405372 4.589376 -4.656669 89.164691 1.495831 -3.421546 47.217518 0.000002 -0.000002 -0.000006 2.634500 -6.539968 74.809225 5.688705 -4.541729 102.810296 1.460389 -3.388463 46.621123 0.000002 -0.000002 -0.000006 3.122524 -6.655077 70.080910 5.298708 -4.612855 97.926307 2.043382 -3.855857 55.828969 -0.000001 -0.000001 -0.000003 4.911936 -9.704396 53.806219 4.184471 -4.633147 84.168018 1.827805 -3.700675 52.558524 0.000003 0.000005 0.000003 -38.139093 3.288046 33.768756 35.159649 -11.563261 2.068368 -3.650095 4.543018 -23.118288 -0.639879 0.011986 -1.313264 0.000000 -0.000001 -0.000000 -37.738933 -2.718300 -14.078295 49.858752 -3.999917 2.948940 -17.354348 -4.835959 13.409137 -0.147605 0.000733 -0.275050 0.000000 0.000000 -0.000000 
